<?xml version="1.0" encoding="UTF-8"?>
<svg width="3300px" height="2200px" viewBox="0 0 3300 2200" version="1.1" xmlns="http://www.w3.org/2000/svg" xmlns:xlink="http://www.w3.org/1999/xlink">
    <!-- Generator: Sketch 59.1 (86144) - https://sketch.com -->
    <title>mealTabIcon</title>
    <desc>Created with Sketch.</desc>
    <g id="Page-1" stroke="none" stroke-width="1" fill="none" fill-rule="evenodd">
        <g id="mealTabIcon">
            <g id="Notes">
                <rect id="artboard" fill="#FFFFFF" fill-rule="nonzero" x="0" y="0" width="3300" height="2200"></rect>
                <line x1="263" y1="292" x2="3036" y2="292" id="Path" stroke="#000000" stroke-width="0.5"></line>
                <text id="Weight/Scale-Variations" fill="#000000" font-family="Helvetica-Bold, Helvetica" font-size="13" font-weight="bold">
                    <tspan x="263" y="322">Weight/Scale Variations</tspan>
                </text>
                <text id="Ultralight" fill="#000000" font-family="Helvetica" font-size="13" font-weight="normal">
                    <tspan x="533.711" y="322">Ultralight</tspan>
                </text>
                <text id="Thin" fill="#000000" font-family="Helvetica" font-size="13" font-weight="normal">
                    <tspan x="843.422" y="322">Thin</tspan>
                </text>
                <text id="Light" fill="#000000" font-family="Helvetica" font-size="13" font-weight="normal">
                    <tspan x="1138.63" y="322">Light</tspan>
                </text>
                <text id="Regular" fill="#000000" font-family="Helvetica" font-size="13" font-weight="normal">
                    <tspan x="1426.84" y="322">Regular</tspan>
                </text>
                <text id="Medium" fill="#000000" font-family="Helvetica" font-size="13" font-weight="normal">
                    <tspan x="1723.06" y="322">Medium</tspan>
                </text>
                <text id="Semibold" fill="#000000" font-family="Helvetica" font-size="13" font-weight="normal">
                    <tspan x="2015.77" y="322">Semibold</tspan>
                </text>
                <text id="Bold" fill="#000000" font-family="Helvetica" font-size="13" font-weight="normal">
                    <tspan x="2326.48" y="322">Bold</tspan>
                </text>
                <text id="Heavy" fill="#000000" font-family="Helvetica" font-size="13" font-weight="normal">
                    <tspan x="2618.19" y="322">Heavy</tspan>
                </text>
                <text id="Black" fill="#000000" font-family="Helvetica" font-size="13" font-weight="normal">
                    <tspan x="2917.4" y="322">Black</tspan>
                </text>
                <line x1="263" y1="1903" x2="3036" y2="1903" id="Path" stroke="#000000" stroke-width="0.5"></line>
                <g id="Group" transform="translate(264.000000, 1918.000000)" fill="#000000" fill-rule="nonzero">
                    <path d="M8.24805,15.830078 C12.5547,15.830078 16.1387,12.25586 16.1387,7.94922 C16.1387,3.6426 12.5449,0.0684 8.23828,0.0684 C3.94141,0.0684 0.36719,3.6426 0.36719,7.94922 C0.36719,12.25586 3.95117,15.830078 8.24805,15.830078 Z M8.24805,14.345703 C4.70312,14.345703 1.87109,11.50391 1.87109,7.94922 C1.87109,4.3945 4.69336,1.5527 8.23828,1.5527 C11.793,1.5527 14.6348,4.3945 14.6445252,7.94922 C14.6543,11.50391 11.8027,14.345703 8.24805,14.345703 Z M8.22852,11.57227 C8.69727,11.57227 8.9707,11.25977 8.9707,10.74219 L8.9707,8.68164 L11.1973,8.68164 C11.6953,8.68164 12.0371,8.42773 12.0371,7.95898 C12.0371,7.48047 11.7148,7.2168 11.1973,7.2168 L8.9707,7.2168 L8.9707,4.9902 C8.9707,4.4727 8.69727,4.1504 8.22852,4.1504 C7.75977,4.1504 7.50586,4.4922 7.50586,4.9902 L7.50586,7.2168 L5.29883,7.2168 C4.78125,7.2168 4.44922,7.48047 4.44922,7.95898 C4.44922,8.42773 4.80078,8.68164 5.29883,8.68164 L7.50586,8.68164 L7.50586,10.74219 C7.50586,11.24023 7.75977,11.57227 8.22852,11.57227 Z" id="Shape"></path>
                </g>
                <g id="Group" transform="translate(282.506000, 1915.000000)" fill="#000000" fill-rule="nonzero">
                    <path d="M10.709,20.91016 C16.1582,20.91016 20.6699,16.39844 20.6699,10.94922 C20.6699,5.5098 16.1484,0.9883 10.6992,0.9883 C5.25977,0.9883 0.74805,5.5098 0.74805,10.94922 C0.74805,16.39844 5.26953,20.91016 10.709,20.91016 Z M10.709,19.25 C6.09961,19.25 2.41797,15.55859 2.41797,10.94922 C2.41797,6.3496 6.08984,2.6484 10.6992,2.6484 C15.3086,2.6484 19,6.3496 19.009819,10.94922 C19.0195,15.55859 15.3184,19.25 10.709,19.25 Z M10.6895,15.58789 C11.207,15.58789 11.5195,15.22656 11.5195,14.66016 L11.5195,11.76953 L14.5762,11.76953 C15.123,11.76953 15.5039,11.48633 15.5039,10.96875 C15.5039,10.44141 15.1426,10.13867 14.5762,10.13867 L11.5195,10.13867 L11.5195,7.0723 C11.5195,6.4961 11.207,6.1445 10.6895,6.1445 C10.1719,6.1445 9.8789,6.5156 9.8789,7.0723 L9.8789,10.13867 L6.83203,10.13867 C6.26562,10.13867 5.89453,10.44141 5.89453,10.96875 C5.89453,11.48633 6.28516,11.76953 6.83203,11.76953 L9.8789,11.76953 L9.8789,14.66016 C9.8789,15.20703 10.1719,15.58789 10.6895,15.58789 Z" id="Shape"></path>
                </g>
                <g id="Group" transform="translate(306.924000, 1913.000000)" fill="#000000" fill-rule="nonzero">
                    <path d="M12.9707,25.67383 C19.9336,25.67383 25.6953,19.921875 25.6953,12.95898 C25.6953,5.9961 19.9238,0.2441 12.9609,0.2441 C6.00781,0.2441 0.25586,5.9961 0.25586,12.95898 C0.25586,19.921875 6.01758,25.67383 12.9707,25.67383 Z M12.9707,23.85742 C6.93555,23.85742 2.08203,18.99414 2.08203,12.95898 C2.08203,6.9238 6.92578,2.0605 12.9609,2.0605 C19.0059,2.0605 23.8594,6.9238 23.8691148,12.95898 C23.8789,18.99414 19.0156,23.85742 12.9707,23.85742 Z M12.9512,18.93555 C13.5176,18.93555 13.8691,18.54492 13.8691,17.93945 L13.8691,13.86719 L18.1074,13.86719 C18.6934,13.86719 19.1133,13.53516 19.1133,12.97852 C19.1133,12.40234 18.7227,12.06055 18.1074,12.06055 L13.8691,12.06055 L13.8691,7.8125 C13.8691,7.1973 13.5176,6.8066 12.9512,6.8066 C12.3848,6.8066 12.0625,7.2168 12.0625,7.8125 L12.0625,12.06055 L7.83398,12.06055 C7.21875,12.06055 6.80859,12.40234 6.80859,12.97852 C6.80859,13.53516 7.23828,13.86719 7.83398,13.86719 L12.0625,13.86719 L12.0625,17.93945 C12.0625,18.52539 12.3848,18.93555 12.9512,18.93555 Z" id="Shape"></path>
                </g>
                <text id="Design-Variations" fill="#000000" font-family="Helvetica-Bold, Helvetica" font-size="13" font-weight="bold">
                    <tspan x="263" y="1953">Design Variations</tspan>
                </text>
                <text id="Symbols-are-supported-in-up-to-nine-weights-and-three-scales." fill="#000000" font-family="Helvetica" font-size="13" font-weight="normal">
                    <tspan x="263" y="1971">Symbols are supported in up to nine weights and three scales.</tspan>
                </text>
                <text id="For-optimal-layout-with-text-and-other-symbols,-vertically-align" fill="#000000" font-family="Helvetica" font-size="13" font-weight="normal">
                    <tspan x="263" y="1989">For optimal layout with text and other symbols, vertically align</tspan>
                </text>
                <text id="symbols-with-the-adjacent-text." fill="#000000" font-family="Helvetica" font-size="13" font-weight="normal">
                    <tspan x="263" y="2007">symbols with the adjacent text.</tspan>
                </text>
                <rect id="Rectangle" fill="#00AEEF" fill-rule="nonzero" opacity="0.4" x="776" y="1919" width="3" height="14"></rect>
                <g id="Group" transform="translate(779.000000, 1918.000000)" fill="#000000" fill-rule="nonzero">
                    <path d="M10.5273,15 L12.373,15 L7.17773,0.9082 L5.43945,0.9082 L0.244141,15 L2.08984,15 L3.50586,10.9668 L9.11133,10.9668 L10.5273,15 Z M6.2793,3.0469 L6.33789,3.0469 L8.59375,9.47266 L4.02344,9.47266 L6.2793,3.0469 Z" id="Shape"></path>
                </g>
                <rect id="Rectangle" fill="#00AEEF" fill-rule="nonzero" opacity="0.4" x="791.617" y="1919" width="3" height="14"></rect>
                <text id="Margins" fill="#000000" font-family="Helvetica-Bold, Helvetica" font-size="13" font-weight="bold">
                    <tspan x="776" y="1953">Margins</tspan>
                </text>
                <text id="Leading-and-trailing-margins-on-the-left-and-right-side-of-each-symbol" fill="#000000" font-family="Helvetica" font-size="13" font-weight="normal">
                    <tspan x="776" y="1971">Leading and trailing margins on the left and right side of each symbol</tspan>
                </text>
                <text id="can-be-adjusted-by-modifying-the-width-of-the-blue-rectangles." fill="#000000" font-family="Helvetica" font-size="13" font-weight="normal">
                    <tspan x="776" y="1989">can be adjusted by modifying the width of the blue rectangles.</tspan>
                </text>
                <text id="Modifications-are-automatically-applied-proportionally-to-all" fill="#000000" font-family="Helvetica" font-size="13" font-weight="normal">
                    <tspan x="776" y="2007">Modifications are automatically applied proportionally to all</tspan>
                </text>
                <text id="scales-and-weights." fill="#000000" font-family="Helvetica" font-size="13" font-weight="normal">
                    <tspan x="776" y="2025">scales and weights.</tspan>
                </text>
                <g id="Group" transform="translate(1291.000000, 1915.000000)" fill="#000000" fill-rule="nonzero">
                    <path d="M0.83203,21.11523 L2.375,22.6582 C3.22461,23.48828 4.19141,23.41992 5.06055,22.46289 L15.2754,11.33984 C15.7051,11.63281 16.0957,11.62305 16.5645,11.52539 L17.6094,11.31055 L18.3027,12.00391 L18.2539,12.52148 C18.1855,13.04883 18.3516,13.46875 18.8496,13.9668 L19.6602,14.77734 C20.168,15.28516 20.8223,15.31445 21.3008,14.83594 L24.5527,11.58398 C25.0312,11.10547 25.0117,10.45117 24.5039,9.94336 L23.6836,9.12305 C23.1855,8.625 22.7754,8.44922 22.2383,8.52734 L21.7109,8.58594 L21.0566,7.9219 L21.3398,6.7793 C21.4863,6.2129 21.3398,5.7441 20.7148,5.1387 L18.3027,2.7461 C14.7578,-0.7793 10.2266,-0.6719 7.11133,2.4629 C6.69141,2.8926 6.64258,3.4785 6.91602,3.9082 C7.15039,4.2793 7.62891,4.5039 8.2734,4.3379 C9.7871,3.957 11.3008,4.0742 12.7852,5.0801 L12.1602,6.6621 C11.9258,7.248 11.9453,7.7266 12.1797,8.16602 L1.01758,18.439453 C0.08008,19.30859 -0.02734,20.25586 0.83203,21.11523 Z M8.6738,2.8535 C11.3398,0.8613 14.6504,1.1738 17.0527,3.5859 L19.6797,6.1934 C19.9141,6.4277 19.9434,6.6133 19.8848,6.9062 L19.5039,8.46875 L21.0762,10.04102 L22.043,9.95312 C22.3262,9.92383 22.4141,9.94336 22.6387,10.16797 L23.2637,10.79297 L20.5098,13.53711 L19.8848,12.92188 C19.6602,12.69727 19.6406,12.59961 19.6699,12.31641 L19.7578,11.35938 L18.1953,9.79688 L16.5742,10.10938 C16.291,10.16797 16.1445,10.16797 15.9102,9.92383 L13.7324,7.7461 C13.5078,7.5117 13.4785,7.375 13.6055,7.0527 L14.5527,4.7773 C12.9512,3.2441 10.8418,2.3945 8.8008,3.0488 C8.7129,3.0781 8.6445,3.0586 8.6152,3.0195 C8.5859,2.9707 8.5859,2.9219 8.6738,2.8535 Z M2.10156,20.41211 C1.61328,19.91406 1.78906,19.61133 2.12109,19.30859 L13.0781,9.19141 L14.3086,10.42188 L4.15234,21.34961 C3.84961,21.68164 3.46875,21.7793 3.06836,21.37891 L2.10156,20.41211 Z" id="Shape"></path>
                </g>
                <text id="Exporting" fill="#000000" font-family="Helvetica-Bold, Helvetica" font-size="13" font-weight="bold">
                    <tspan x="1289" y="1953">Exporting</tspan>
                </text>
                <text id="Symbols-should-be-outlined-when-exporting-to-ensure-the" fill="#000000" font-family="Helvetica" font-size="13" font-weight="normal">
                    <tspan x="1289" y="1971">Symbols should be outlined when exporting to ensure the</tspan>
                </text>
                <text id="design-is-preserved-when-submitting-to-Xcode." fill="#000000" font-family="Helvetica" font-size="13" font-weight="normal">
                    <tspan x="1289" y="1989">design is preserved when submitting to Xcode.</tspan>
                </text>
                <text id="template-version" fill="#000000" font-family="Helvetica" font-size="13" font-weight="normal">
                    <tspan x="2952" y="1933">Template v.1.0</tspan>
                </text>
                <text id="Generated-from-pencil.circle" fill="#000000" font-family="Helvetica" font-size="13" font-weight="normal">
                    <tspan x="2873" y="1951">Generated from pencil.circle</tspan>
                </text>
                <text id="Typeset-at-100-points" fill="#000000" font-family="Helvetica" font-size="13" font-weight="normal">
                    <tspan x="2912" y="1969">Typeset at 100 points</tspan>
                </text>
                <text id="Small" fill="#000000" font-family="Helvetica" font-size="13" font-weight="normal">
                    <tspan x="263" y="726">Small</tspan>
                </text>
                <text id="Medium" fill="#000000" font-family="Helvetica" font-size="13" font-weight="normal">
                    <tspan x="263" y="1156">Medium</tspan>
                </text>
                <text id="Large" fill="#000000" font-family="Helvetica" font-size="13" font-weight="normal">
                    <tspan x="263" y="1586">Large</tspan>
                </text>
            </g>
            <g id="Guides" transform="translate(263.000000, 625.000000)">
                <g id="H-reference" transform="translate(76.000000, 0.000000)" fill="#27AAE1" fill-rule="nonzero">
                    <path d="M54.9316,71 L57.666,71 L30.5664,0.541 L28.0762,0.541 L0.976562,71 L3.66211,71 L12.9395,46.5371 L45.7031,46.5371 L54.9316,71 Z M29.1992,3.9102 L29.4434,3.9102 L44.8242,44.291 L13.8184,44.291 L29.1992,3.9102 Z" id="Shape"></path>
                </g>
                <line x1="0" y1="71" x2="2773" y2="71" id="Baseline-S" stroke="#27AAE1" stroke-width="0.577"></line>
                <line x1="0" y1="0.541" x2="2773" y2="0.541" id="Capline-S" stroke="#27AAE1" stroke-width="0.577"></line>
                <g id="H-reference" transform="translate(76.000000, 430.000000)" fill="#27AAE1" fill-rule="nonzero">
                    <path d="M54.9316,71 L57.666,71 L30.5664,0.541 L28.0762,0.541 L0.976562,71 L3.66211,71 L12.9395,46.5371 L45.7031,46.5371 L54.9316,71 Z M29.1992,3.9102 L29.4434,3.9102 L44.8242,44.291 L13.8184,44.291 L29.1992,3.9102 Z" id="Shape"></path>
                </g>
                <line x1="0" y1="501" x2="2773" y2="501" id="Baseline-M" stroke="#27AAE1" stroke-width="0.577"></line>
                <line x1="0" y1="430.54" x2="2773" y2="430.54" id="Capline-M" stroke="#27AAE1" stroke-width="0.577"></line>
                <g id="H-reference" transform="translate(76.000000, 860.000000)" fill="#27AAE1" fill-rule="nonzero">
                    <path d="M54.9316,71 L57.666,71 L30.5664,0.541 L28.0762,0.541 L0.976562,71 L3.66211,71 L12.9395,46.5371 L45.7031,46.5371 L54.9316,71 Z M29.1992,3.9102 L29.4434,3.9102 L44.8242,44.291 L13.8184,44.291 L29.1992,3.9102 Z" id="Shape"></path>
                </g>
                <line x1="0" y1="931" x2="2773" y2="931" id="Baseline-L" stroke="#27AAE1" stroke-width="0.577"></line>
                <line x1="0" y1="860.54" x2="2773" y2="860.54" id="Capline-L" stroke="#27AAE1" stroke-width="0.577"></line>
                <rect id="left-margin" fill="#00AEEF" fill-rule="nonzero" opacity="0.4" x="1128.3" y="405.79" width="8.74023" height="119.336"></rect>
                <rect id="right-margin" fill="#00AEEF" fill-rule="nonzero" opacity="0.4" x="1236.65" y="405.79" width="8.74023" height="119.336"></rect>
            </g>
            <g id="Symbols" transform="translate(1390.000000, 1031.000000)" fill="#000000" fill-rule="nonzero">
                <g id="Regular-M" transform="translate(0.300000, 0.000000)">
                    <g id="spaguetti" transform="translate(0.700000, 0.000000)">
                        <path d="M116.03341,95 L1.96658984,95 C0.881082031,95 0,95.8939063 0,96.9999219 C0,109.13 9.7055,119 21.6334102,119 L96.3668203,119 C108.2945,119 118,109.13 118,96.9999219 C118,95.8939062 117.120992,95 116.03341,95 Z M96.3665898,114.999922 L21.6334102,114.999922 C12.5375,114.999922 5.02283594,107.987891 4.0415,98.9998437 L113.956426,98.9998437 C112.97509,107.988125 105.4625,114.999922 96.3665898,114.999922 Z" id="Shape"></path>
                        <path d="M58.82001,66 C58.8101765,66 58.8024012,66 58.7946259,66 C51.1039234,66 43.7176017,68.9419753 38,74.2865718 L40.609076,77.2995898 C45.6106625,72.6281169 52.0680626,70.0551359 58.7966841,70.0551359 C58.8026299,70.0551359 58.8122347,70.0551359 58.8181805,70.0551359 C69.633188,70.0551359 78.8791824,75.9226921 82.3741871,85 L86,83.4955106 C81.9074394,72.8671435 71.2369613,66 58.82001,66 Z" id="Path"></path>
                        <path d="M73.6638747,79.2705812 C63.4973668,71.1725281 48.3969373,72.5623361 40,82.3653254 L43.0725799,84.8122435 C50.068899,76.6430106 62.6543805,75.4820592 71.1232402,82.2326517 C72.4981718,83.3303072 73.7136133,84.5989294 74.7359385,86 L78,83.7913991 C76.7724158,82.1096638 75.3136526,80.5892094 73.6638747,79.2705812 Z" id="Path"></path>
                        <path d="M69.2731832,87.2817484 C63.0680395,81.4876058 53.0791814,81.5887214 47,87.4956298 L49.8131585,90.1217773 C54.3724869,85.6911563 61.8672448,85.6179575 66.5170077,89.9586735 C68.7711796,92.061438 70.0626394,94.9913718 70.0626394,98 L74,98 C74,93.9894483 72.2773615,90.0822104 69.2731832,87.2817484 Z" id="Path"></path>
                        <path d="M81.0138321,74 C80.9848952,74 80.9579928,74 80.9290559,74 L79,74 L79,77.9725727 L80.9367422,77.9725727 C91.8884805,78.0163322 101.240773,86.7319245 102.157261,98 L106,97.6701743 C104.921646,84.380316 93.9506916,74 81.0138321,74 Z" id="Path"></path>
                        <path d="M92.1914347,85.7962449 C88.6390198,82.4435111 84.0598149,80.7460516 79.3042902,81.030801 C74.5466747,81.3091735 70.1777062,83.5297772 67,87.278119 L69.9537637,90.0699383 C72.425726,87.1545068 75.8234254,85.4258991 79.5245157,85.2081063 C83.245352,85.0050292 86.7838285,86.3068808 89.5491926,88.9147534 C92.0409007,91.2692703 93.6447375,94.4944678 94.0649781,98 L98,97.4726863 C97.458496,92.9684466 95.3949267,88.8203275 92.1914347,85.7962449 Z" id="Path"></path>
                        <path d="M82.9317665,90.2958896 C77.6933907,89.0068433 72.3435504,92.0508775 71,97.0678967 L74.8008274,98 C75.6049811,94.9898766 78.8172295,93.1653058 81.9591518,93.9375445 C84.0399773,94.4468653 85.6678198,96.0045546 86.1991726,98 L90,97.0678967 C89.1094325,93.7420075 86.4030264,91.1471798 82.9317665,90.2958896 Z" id="Path"></path>
                        <path d="M39.3152404,74.0872368 C32.5706971,73.5281756 26.0152404,75.669617 20.8569231,80.1249121 C15.6967788,84.5802071 12.5515024,90.8142277 12,97.6749266 L15.8838101,98 C16.3494471,92.1923624 19.0115024,86.9179939 23.3767067,83.1507206 C27.743738,79.381356 33.2898197,77.5631291 38.9975841,78.0429551 C42.1643269,78.3045939 45.2899639,79.306071 48.0376562,80.933994 L50,77.5057358 C46.7515024,75.5803903 43.0567788,74.3986009 39.3152404,74.0872368 Z" id="Path"></path>
                        <path d="M39.6547574,81.142738 C30.0184969,79.873704 21.1871138,87.2085638 20,97.4907231 L23.8887103,98 C24.8113579,90.0034716 31.6679676,84.3197259 39.1749531,85.2839764 C45.4300857,86.1063535 50.3374044,91.3351256 51.107387,98 L55,97.4907231 C54.0082515,88.9200963 47.6982513,82.1970048 39.6547574,81.142738 Z" id="Path"></path>
                        <path d="M39.9833939,90.3101112 C37.4479893,89.6730973 34.800969,90.0253987 32.5385053,91.2939046 C30.2742006,92.5661653 28.6618702,94.6092925 28,97.0444791 L31.8,97.998233 C32.198595,96.5375627 33.1667757,95.3103612 34.5238857,94.5489926 C35.8809956,93.7856361 37.4696221,93.5764641 38.9915092,93.9590259 C41.0496124,94.47544 42.6637839,96.0229156 43.2018411,98 L47,97.0444791 C46.1027011,93.7500747 43.4142563,91.1695499 39.9833939,90.3101112 Z" id="Path"></path>
                        <path d="M59.4997803,90 C55.3635085,90 52,93.5880819 52,98 L55.75,98 C55.75,95.794041 57.4317543,93.9998828 59.5,93.9998828 C61.568026,93.9998828 63.25,95.7938066 63.25,98 L67,98 C66.9995606,93.5880819 63.636052,90 59.4997803,90 Z" id="Path"></path>
                        <rect id="Rectangle" x="20" y="8" width="15" height="4"></rect>
                        <rect id="Rectangle" x="24" y="16" width="12" height="4"></rect>
                        <path d="M15.0398706,43.0380897 C13.0751798,39.3295635 13.0751798,34.7243957 15.0398706,31.0156349 C17.6533765,26.0821129 17.6533765,19.9519744 15.0398706,15.0184524 C13.0751798,11.3099262 13.0751798,6.70475839 15.0398706,2.99599761 C15.3678621,2.3756427 15.3661244,1.61503363 15.0342231,0.996555022 C14.702539,0.380187265 14.0908674,0 13.4309746,0 L8,0 L8,4.00287234 L10.5950427,4.00287234 C9.30870782,8.27992044 9.71641647,13.0312058 11.8220785,17.0040572 C13.7867693,20.7125835 13.7867693,25.3177512 11.8220785,29.026512 C9.20857267,33.960034 9.20857267,40.0901725 11.8220785,45.0236945 C13.7867693,48.7322207 13.7867693,53.3373885 11.8220785,57.0461493 C9.20857267,61.9815476 9.20857267,68.1098098 11.746054,72.8831418 C12.3131969,74.2200125 12.7932374,75.6070745 13.17336,77 L16.7284839,75.8692888 C16.2984023,74.2922505 15.75537,72.7290499 15.0398706,71.0579615 C13.0751798,67.3513116 13.0751798,62.7421567 15.0398706,59.0355067 C17.6533765,54.1017502 17.6533765,47.9713771 15.0398706,43.0380897 Z" id="Path"></path>
                        <path d="M117.996313,14.4852312 C117.83501,8.67116007 113.025417,4.11704883 107.265979,4.23231036 L49.9681726,5.93515398 L46.9693202,2.90505634 C45.113184,1.03129966 42.6454791,0 40.0243061,0 C40.0203887,0 40.0164713,0 40.0143974,0 L21.7862413,0 C21.0804257,0 20.429453,0.381410892 20.0794256,0.999398991 C17.3068581,5.89743202 17.3068581,11.9834738 20.0794256,16.8815069 C22.1636902,20.5633561 22.1636902,25.1356298 20.0794256,28.817479 C17.3068581,33.715512 17.3068581,39.8015538 20.0794256,44.6995868 C22.1636902,48.3814361 22.1636902,52.9534769 20.0794256,56.635559 C17.3068581,61.5354548 17.3068581,67.6196338 20.0794256,72.5176668 C20.3488015,72.9945469 20.5847647,73.4893565 20.7873151,74 L24.4369098,72.5216253 C24.1693773,71.8440272 23.8509192,71.1785374 23.4930571,70.5465782 C21.4087924,66.8665918 21.4087924,62.2905925 23.4930571,58.6106061 C26.2656245,53.712573 26.2656245,47.6265312 23.4930571,42.7284982 C21.4087924,39.046649 21.4087924,34.4746082 23.4930571,30.7925261 C24.0318089,29.838766 24.4664052,28.8433255 24.7947719,27.81808 L40.0123235,27.81808 C40.0162409,27.81808 40.0183148,27.81808 40.0222322,27.81808 C42.6452487,27.81808 45.113184,26.7849175 46.9693202,24.9111608 L49.944438,21.904814 L106.949134,25.2907089 C107.153528,25.3025843 107.438804,25.2986259 107.558629,25.3086385 C113.312306,25.3086385 117.996083,20.5796557 118,14.7637217 L117.996313,14.4852312 Z M107.557016,21.3343277 C107.405622,21.3005642 107.309301,21.3303692 107.183484,21.3243151 L49.2936958,17.88696 C48.7332833,17.8452796 48.1846228,18.0636943 47.7873566,18.4651305 L44.188918,22.1013408 C43.0759276,23.2239183 41.5972403,23.844002 40.0201583,23.844002 C40.0180844,23.844002 40.0162409,23.844002 40.014167,23.844002 L25.5418351,23.844002 C25.7287161,20.7719911 25.0464046,17.6545741 23.4928266,14.9085554 C21.5952125,11.5545612 21.4260749,7.45940044 22.9874875,3.97407795 L40.0162409,3.97407795 C40.0183148,3.97407795 40.0201583,3.97407795 40.0222322,3.97407795 C41.5953969,3.97407795 43.0759276,4.59392887 44.188918,5.71860201 L47.7873566,9.35481232 C48.1687229,9.74018169 48.7037879,9.96674628 49.234705,9.93507846 L107.37797,8.20429265 C111.049225,8.10300221 113.963278,10.9721994 114.067434,14.7613932 C114.063516,18.3875909 111.143472,21.3343277 107.557016,21.3343277 Z" id="Shape"></path>
                        <path d="M31.0778349,42.2429531 C29.1511699,38.5594494 29.1511699,33.9853541 31.0759178,30.3037141 C31.802917,28.9201872 32.333735,27.4311311 32.6553783,25.8766142 L29.1092072,25 C28.8674422,26.1668777 28.4693287,27.2859993 27.922322,28.3277795 C25.3593996,33.2280135 25.3593996,39.3167901 27.922322,44.217024 C29.8489869,47.9005277 29.8489869,52.4767196 27.9204049,56.1623198 C25.5483385,60.7184775 25.3630208,66.2667956 27.4240943,71 L30.7050694,69.2924309 C29.152874,65.7300645 29.2945249,61.5575858 31.0776219,58.1324305 C33.6407572,53.2319636 33.6407572,47.143187 31.0778349,42.2429531 Z" id="Path"></path>
                        <rect id="Rectangle" x="8" y="8" width="4" height="4"></rect>
                        <rect id="Rectangle" x="8" y="16" width="6" height="4"></rect>
                        <rect id="Rectangle" x="7" y="23" width="8" height="4"></rect>
                    </g>
                </g>
            </g>
        </g>
    </g>
</svg>