<?xml version="1.0" encoding="iso-8859-1"?>
<!-- Generator: Adobe Illustrator 19.0.0, SVG Export Plug-In . SVG Version: 6.00 Build 0)  -->
<svg version="1.1" id="Capa_1" xmlns="http://www.w3.org/2000/svg" xmlns:xlink="http://www.w3.org/1999/xlink" x="0px" y="0px"
	 viewBox="0 0 512 512" style="enable-background:new 0 0 512 512;" xml:space="preserve">
<g>
	<g>
		<path d="M512,0h-63.541L422,13.229L395.541,0H266.459l-30,15h-82.918l-30-15H0v245.541l15,30v82.918l-15,30V512h258.541
			L285,498.771L311.459,512H512V313.459L498.771,287L512,260.541V0z M482,253.459L465.229,287L482,320.541V482H318.541L285,465.229
			L251.459,482H30v-86.459l15-30v-97.082l-15-30V30h86.459l30,15h97.082l30-15h114.918L422,46.771L455.541,30H482V253.459z"/>
	</g>
</g>
<g>
	<g>
		<path d="M383.213,75H250.787L437,261.213V128.787L383.213,75z M407,188.787L323.213,105h47.573L407,141.213V188.787z"/>
	</g>
</g>
<g>
	<g>
		<path d="M75,250.787v132.426L128.787,437h132.427L75,250.787z M105,370.787v-47.574L188.787,407h-47.573L105,370.787z"/>
	</g>
</g>
<g>
	<g>
		<path d="M118.603,70.185l-48.997,48.996l190.495,223.85l27.223,11.576l7.073,28.724L340.069,437h79.94l18.095-126.66
			L118.603,70.185z M393.991,407h-40.06l-32.098-37.719l-8.965-36.413l-34.51-14.674L110.394,120.819l11.004-11.004L405.896,323.66
			L393.991,407z"/>
	</g>
</g>
<g>
</g>
<g>
</g>
<g>
</g>
<g>
</g>
<g>
</g>
<g>
</g>
<g>
</g>
<g>
</g>
<g>
</g>
<g>
</g>
<g>
</g>
<g>
</g>
<g>
</g>
<g>
</g>
<g>
</g>
</svg>
